<mxfile host="app.diagrams.net" modified="2022-07-13T09:23:14.121Z" agent="5.0 (Macintosh; Intel Mac OS X 10_15_7) AppleWebKit/537.36 (KHTML, like Gecko) Chrome/103.0.0.0 Safari/537.36" etag="KeldX7qUfg76L0Bo3ikE" version="20.0.1" type="github">
  <diagram name="Page-1" id="c7488fd3-1785-93aa-aadb-54a6760d102a">
    <mxGraphModel dx="2118" dy="528" grid="1" gridSize="10" guides="1" tooltips="1" connect="1" arrows="1" fold="1" page="1" pageScale="1" pageWidth="1100" pageHeight="850" background="none" math="0" shadow="0">
      <root>
        <mxCell id="0" />
        <mxCell id="1" parent="0" />
        <mxCell id="yAcTvHBfnp9vPDVO_GiE-1" value="" style="rounded=0;whiteSpace=wrap;html=1;" parent="1" vertex="1">
          <mxGeometry x="-60" y="620" width="580" height="550" as="geometry" />
        </mxCell>
        <mxCell id="yAcTvHBfnp9vPDVO_GiE-6" value="" style="line;strokeWidth=2;html=1;" parent="1" vertex="1">
          <mxGeometry x="60" y="1120" width="340" height="10" as="geometry" />
        </mxCell>
        <mxCell id="yAcTvHBfnp9vPDVO_GiE-7" value="" style="verticalLabelPosition=bottom;verticalAlign=top;html=1;shape=mxgraph.basic.smiley;fillColor=#d5e8d4;strokeColor=#82b366;" parent="1" vertex="1">
          <mxGeometry x="60" y="1067.5" width="50" height="50" as="geometry" />
        </mxCell>
        <mxCell id="yAcTvHBfnp9vPDVO_GiE-8" value="" style="verticalLabelPosition=bottom;verticalAlign=top;html=1;shape=mxgraph.basic.star;fillColor=#ffe6cc;strokeColor=#d79b00;" parent="1" vertex="1">
          <mxGeometry x="230" y="1072.5" width="50" height="45" as="geometry" />
        </mxCell>
        <mxCell id="yAcTvHBfnp9vPDVO_GiE-9" value="" style="verticalLabelPosition=bottom;verticalAlign=top;html=1;shape=mxgraph.basic.orthogonal_triangle;fillColor=#dae8fc;strokeColor=#6c8ebf;" parent="1" vertex="1">
          <mxGeometry x="220" y="470" width="65" height="50" as="geometry" />
        </mxCell>
        <mxCell id="yAcTvHBfnp9vPDVO_GiE-10" value="" style="verticalLabelPosition=bottom;verticalAlign=top;html=1;shape=mxgraph.basic.partConcEllipse;startAngle=0.4928517792689533;endAngle=0.006362805673995916;arcWidth=0.24;fillColor=#dae8fc;strokeColor=#6c8ebf;" parent="1" vertex="1">
          <mxGeometry x="300" y="450" width="70" height="70" as="geometry" />
        </mxCell>
        <mxCell id="yAcTvHBfnp9vPDVO_GiE-11" value="" style="verticalLabelPosition=bottom;verticalAlign=top;html=1;shape=mxgraph.basic.banner;fillColor=#e1d5e7;strokeColor=#9673a6;" parent="1" vertex="1">
          <mxGeometry x="290" y="835" width="100" height="50" as="geometry" />
        </mxCell>
        <mxCell id="yAcTvHBfnp9vPDVO_GiE-14" value="" style="verticalLabelPosition=bottom;verticalAlign=top;html=1;shape=mxgraph.basic.star;fillColor=#ffe6cc;strokeColor=#d79b00;" parent="1" vertex="1">
          <mxGeometry x="140" y="950" width="50" height="45" as="geometry" />
        </mxCell>
        <mxCell id="yAcTvHBfnp9vPDVO_GiE-15" value="" style="verticalLabelPosition=bottom;verticalAlign=top;html=1;shape=mxgraph.basic.star;fillColor=#ffe6cc;strokeColor=#d79b00;" parent="1" vertex="1">
          <mxGeometry x="130" y="840" width="50" height="45" as="geometry" />
        </mxCell>
        <mxCell id="yAcTvHBfnp9vPDVO_GiE-18" value="" style="html=1;shadow=0;dashed=0;align=center;verticalAlign=middle;shape=mxgraph.arrows2.uTurnArrow;dy=6;arrowHead=50;dx2=32;fillColor=#dae8fc;strokeColor=#6c8ebf;" parent="1" vertex="1">
          <mxGeometry x="300" y="940" width="60" height="70" as="geometry" />
        </mxCell>
        <mxCell id="yAcTvHBfnp9vPDVO_GiE-19" value="" style="verticalLabelPosition=bottom;verticalAlign=top;html=1;shape=mxgraph.basic.sun" parent="1" vertex="1">
          <mxGeometry x="-70" y="450" width="80" height="80" as="geometry" />
        </mxCell>
        <mxCell id="yAcTvHBfnp9vPDVO_GiE-21" value="" style="verticalLabelPosition=bottom;verticalAlign=top;html=1;shape=mxgraph.basic.drop;rotation=180;" parent="1" vertex="1">
          <mxGeometry x="40" y="450" width="60" height="80" as="geometry" />
        </mxCell>
        <mxCell id="yAcTvHBfnp9vPDVO_GiE-22" value="" style="line;strokeWidth=2;html=1;" parent="1" vertex="1">
          <mxGeometry x="60" y="1010" width="340" height="10" as="geometry" />
        </mxCell>
        <mxCell id="yAcTvHBfnp9vPDVO_GiE-23" value="" style="line;strokeWidth=2;html=1;" parent="1" vertex="1">
          <mxGeometry x="60" y="890" width="340" height="10" as="geometry" />
        </mxCell>
        <mxCell id="yAcTvHBfnp9vPDVO_GiE-25" value="" style="verticalLabelPosition=bottom;verticalAlign=top;html=1;shape=mxgraph.basic.partConcEllipse;startAngle=0.4928517792689533;endAngle=0.006362805673995916;arcWidth=0.24;fillColor=#dae8fc;strokeColor=#6c8ebf;rotation=180;" parent="1" vertex="1">
          <mxGeometry x="300" y="950" width="190" height="200" as="geometry" />
        </mxCell>
        <mxCell id="yAcTvHBfnp9vPDVO_GiE-26" value="" style="verticalLabelPosition=bottom;verticalAlign=top;html=1;shape=mxgraph.basic.partConcEllipse;startAngle=0.4928517792689533;endAngle=0.006362805673995916;arcWidth=0.24;fillColor=#dae8fc;strokeColor=#6c8ebf;rotation=0;" parent="1" vertex="1">
          <mxGeometry x="-40" y="830" width="190" height="200" as="geometry" />
        </mxCell>
        <mxCell id="yAcTvHBfnp9vPDVO_GiE-27" value="" style="html=1;shadow=0;dashed=0;align=center;verticalAlign=middle;shape=mxgraph.arrows2.uTurnArrow;dy=6;arrowHead=50;dx2=32;fillColor=#dae8fc;strokeColor=#6c8ebf;" parent="1" vertex="1">
          <mxGeometry x="80" y="815" width="60" height="70" as="geometry" />
        </mxCell>
        <mxCell id="yAcTvHBfnp9vPDVO_GiE-28" value="" style="html=1;shadow=0;dashed=0;align=center;verticalAlign=middle;shape=mxgraph.arrows2.uTurnArrow;dy=6;arrowHead=30;dx2=32;fillColor=#dae8fc;strokeColor=#6c8ebf;" parent="1" vertex="1">
          <mxGeometry x="130" y="450" width="50" height="60" as="geometry" />
        </mxCell>
        <mxCell id="yAcTvHBfnp9vPDVO_GiE-29" value="" style="verticalLabelPosition=bottom;verticalAlign=top;html=1;shape=mxgraph.basic.diag_stripe;dx=10;fillColor=#dae8fc;strokeColor=#6c8ebf;" parent="1" vertex="1">
          <mxGeometry x="370" y="460" width="100" height="60" as="geometry" />
        </mxCell>
        <mxCell id="yAcTvHBfnp9vPDVO_GiE-31" value="" style="rounded=0;whiteSpace=wrap;html=1;" parent="1" vertex="1">
          <mxGeometry x="660" y="620" width="580" height="550" as="geometry" />
        </mxCell>
        <mxCell id="yAcTvHBfnp9vPDVO_GiE-32" value="" style="line;strokeWidth=2;html=1;" parent="1" vertex="1">
          <mxGeometry x="780" y="1120" width="340" height="10" as="geometry" />
        </mxCell>
        <mxCell id="yAcTvHBfnp9vPDVO_GiE-33" value="" style="verticalLabelPosition=bottom;verticalAlign=top;html=1;shape=mxgraph.basic.smiley;fillColor=#d5e8d4;strokeColor=#82b366;" parent="1" vertex="1">
          <mxGeometry x="780" y="1067.5" width="50" height="50" as="geometry" />
        </mxCell>
        <mxCell id="yAcTvHBfnp9vPDVO_GiE-34" value="" style="verticalLabelPosition=bottom;verticalAlign=top;html=1;shape=mxgraph.basic.star;fillColor=#ffe6cc;strokeColor=#d79b00;" parent="1" vertex="1">
          <mxGeometry x="950" y="1072.5" width="50" height="45" as="geometry" />
        </mxCell>
        <mxCell id="yAcTvHBfnp9vPDVO_GiE-35" value="" style="verticalLabelPosition=bottom;verticalAlign=top;html=1;shape=mxgraph.basic.banner;fillColor=#e1d5e7;strokeColor=#9673a6;" parent="1" vertex="1">
          <mxGeometry x="1010" y="835" width="100" height="50" as="geometry" />
        </mxCell>
        <mxCell id="yAcTvHBfnp9vPDVO_GiE-36" value="" style="verticalLabelPosition=bottom;verticalAlign=top;html=1;shape=mxgraph.basic.star;fillColor=#ffe6cc;strokeColor=#d79b00;" parent="1" vertex="1">
          <mxGeometry x="860" y="950" width="50" height="45" as="geometry" />
        </mxCell>
        <mxCell id="yAcTvHBfnp9vPDVO_GiE-37" value="" style="verticalLabelPosition=bottom;verticalAlign=top;html=1;shape=mxgraph.basic.star;fillColor=#ffe6cc;strokeColor=#d79b00;" parent="1" vertex="1">
          <mxGeometry x="850" y="840" width="50" height="45" as="geometry" />
        </mxCell>
        <mxCell id="yAcTvHBfnp9vPDVO_GiE-38" value="" style="html=1;shadow=0;dashed=0;align=center;verticalAlign=middle;shape=mxgraph.arrows2.uTurnArrow;dy=6;arrowHead=35;dx2=32;fillColor=#dae8fc;strokeColor=#6c8ebf;" parent="1" vertex="1">
          <mxGeometry x="1050" y="957.5" width="40" height="52.5" as="geometry" />
        </mxCell>
        <mxCell id="yAcTvHBfnp9vPDVO_GiE-39" value="" style="line;strokeWidth=2;html=1;" parent="1" vertex="1">
          <mxGeometry x="780" y="1010" width="340" height="10" as="geometry" />
        </mxCell>
        <mxCell id="yAcTvHBfnp9vPDVO_GiE-40" value="" style="line;strokeWidth=2;html=1;" parent="1" vertex="1">
          <mxGeometry x="780" y="890" width="340" height="10" as="geometry" />
        </mxCell>
        <mxCell id="yAcTvHBfnp9vPDVO_GiE-41" value="" style="verticalLabelPosition=bottom;verticalAlign=top;html=1;shape=mxgraph.basic.partConcEllipse;startAngle=0.4928517792689533;endAngle=0.006362805673995916;arcWidth=0.24;fillColor=#dae8fc;strokeColor=#6c8ebf;rotation=180;" parent="1" vertex="1">
          <mxGeometry x="1020" y="950" width="190" height="200" as="geometry" />
        </mxCell>
        <mxCell id="yAcTvHBfnp9vPDVO_GiE-42" value="" style="verticalLabelPosition=bottom;verticalAlign=top;html=1;shape=mxgraph.basic.partConcEllipse;startAngle=0.4928517792689533;endAngle=0.006362805673995916;arcWidth=0.24;fillColor=#dae8fc;strokeColor=#6c8ebf;rotation=0;" parent="1" vertex="1">
          <mxGeometry x="680" y="830" width="190" height="200" as="geometry" />
        </mxCell>
        <mxCell id="yAcTvHBfnp9vPDVO_GiE-43" value="" style="html=1;shadow=0;dashed=0;align=center;verticalAlign=middle;shape=mxgraph.arrows2.uTurnArrow;dy=6;arrowHead=32.5;dx2=32;fillColor=#dae8fc;strokeColor=#6c8ebf;" parent="1" vertex="1">
          <mxGeometry x="790" y="835" width="50" height="55" as="geometry" />
        </mxCell>
        <mxCell id="yAcTvHBfnp9vPDVO_GiE-44" value="" style="verticalLabelPosition=bottom;verticalAlign=top;html=1;shape=mxgraph.basic.sun" parent="1" vertex="1">
          <mxGeometry x="914.3" y="954.16" width="50" height="50" as="geometry" />
        </mxCell>
        <mxCell id="yAcTvHBfnp9vPDVO_GiE-45" value="" style="verticalLabelPosition=bottom;verticalAlign=top;html=1;shape=mxgraph.basic.diag_stripe;dx=10;fillColor=#dae8fc;strokeColor=#6c8ebf;rotation=65;" parent="1" vertex="1">
          <mxGeometry x="934.2199999999999" y="945.8299999999999" width="105.78" height="45" as="geometry" />
        </mxCell>
        <mxCell id="yAcTvHBfnp9vPDVO_GiE-46" value="" style="verticalLabelPosition=bottom;verticalAlign=top;html=1;shape=mxgraph.basic.sun;rotation=180;" parent="1" vertex="1">
          <mxGeometry x="940" y="839.9999999999999" width="50" height="50" as="geometry" />
        </mxCell>
        <mxCell id="yAcTvHBfnp9vPDVO_GiE-47" value="" style="verticalLabelPosition=bottom;verticalAlign=top;html=1;shape=mxgraph.basic.diag_stripe;dx=10;fillColor=#dae8fc;strokeColor=#6c8ebf;rotation=-195;" parent="1" vertex="1">
          <mxGeometry x="884.22" y="839.9999999999999" width="105.78" height="45" as="geometry" />
        </mxCell>
        <mxCell id="yAcTvHBfnp9vPDVO_GiE-48" value="" style="rounded=0;whiteSpace=wrap;html=1;" parent="1" vertex="1">
          <mxGeometry x="1440" y="620" width="580" height="550" as="geometry" />
        </mxCell>
        <mxCell id="yAcTvHBfnp9vPDVO_GiE-49" value="" style="line;strokeWidth=2;html=1;" parent="1" vertex="1">
          <mxGeometry x="1560" y="1120" width="340" height="10" as="geometry" />
        </mxCell>
        <mxCell id="yAcTvHBfnp9vPDVO_GiE-50" value="" style="verticalLabelPosition=bottom;verticalAlign=top;html=1;shape=mxgraph.basic.smiley;fillColor=#d5e8d4;strokeColor=#82b366;" parent="1" vertex="1">
          <mxGeometry x="1560" y="1067.5" width="50" height="50" as="geometry" />
        </mxCell>
        <mxCell id="yAcTvHBfnp9vPDVO_GiE-51" value="" style="verticalLabelPosition=bottom;verticalAlign=top;html=1;shape=mxgraph.basic.star;fillColor=#ffe6cc;strokeColor=#d79b00;" parent="1" vertex="1">
          <mxGeometry x="1730" y="1072.5" width="50" height="45" as="geometry" />
        </mxCell>
        <mxCell id="yAcTvHBfnp9vPDVO_GiE-52" value="" style="verticalLabelPosition=bottom;verticalAlign=top;html=1;shape=mxgraph.basic.banner;fillColor=#e1d5e7;strokeColor=#9673a6;" parent="1" vertex="1">
          <mxGeometry x="1550" y="940.83" width="100" height="50" as="geometry" />
        </mxCell>
        <mxCell id="yAcTvHBfnp9vPDVO_GiE-53" value="" style="verticalLabelPosition=bottom;verticalAlign=top;html=1;shape=mxgraph.basic.star;fillColor=#ffe6cc;strokeColor=#d79b00;" parent="1" vertex="1">
          <mxGeometry x="1700" y="956.66" width="50" height="45" as="geometry" />
        </mxCell>
        <mxCell id="yAcTvHBfnp9vPDVO_GiE-54" value="" style="verticalLabelPosition=bottom;verticalAlign=top;html=1;shape=mxgraph.basic.star;fillColor=#ffe6cc;strokeColor=#d79b00;" parent="1" vertex="1">
          <mxGeometry x="1695.57" y="860" width="50" height="45" as="geometry" />
        </mxCell>
        <mxCell id="yAcTvHBfnp9vPDVO_GiE-55" value="" style="html=1;shadow=0;dashed=0;align=center;verticalAlign=middle;shape=mxgraph.arrows2.uTurnArrow;dy=2.38;arrowHead=28.75;dx2=14.25;fillColor=#dae8fc;strokeColor=#6c8ebf;" parent="1" vertex="1">
          <mxGeometry x="1820" y="950" width="50" height="57.5" as="geometry" />
        </mxCell>
        <mxCell id="yAcTvHBfnp9vPDVO_GiE-56" value="" style="line;strokeWidth=2;html=1;" parent="1" vertex="1">
          <mxGeometry x="1560" y="1010" width="100" height="10" as="geometry" />
        </mxCell>
        <mxCell id="yAcTvHBfnp9vPDVO_GiE-58" value="" style="verticalLabelPosition=bottom;verticalAlign=top;html=1;shape=mxgraph.basic.partConcEllipse;startAngle=0.4928517792689533;endAngle=0.006362805673995916;arcWidth=0.24;fillColor=#dae8fc;strokeColor=#6c8ebf;rotation=180;" parent="1" vertex="1">
          <mxGeometry x="1800" y="950" width="190" height="200" as="geometry" />
        </mxCell>
        <mxCell id="yAcTvHBfnp9vPDVO_GiE-65" value="" style="line;strokeWidth=2;html=1;" parent="1" vertex="1">
          <mxGeometry x="1780" y="1010" width="100" height="10" as="geometry" />
        </mxCell>
        <mxCell id="yAcTvHBfnp9vPDVO_GiE-66" value="" style="verticalLabelPosition=bottom;verticalAlign=top;html=1;shape=mxgraph.basic.diag_stripe;dx=10;fillColor=#dae8fc;strokeColor=#6c8ebf;rotation=25;" parent="1" vertex="1">
          <mxGeometry x="1650" y="983.6899999999999" width="141.14" height="62.63" as="geometry" />
        </mxCell>
        <mxCell id="yAcTvHBfnp9vPDVO_GiE-67" value="" style="verticalLabelPosition=bottom;verticalAlign=top;html=1;shape=mxgraph.basic.diag_stripe;dx=10;fillColor=#dae8fc;strokeColor=#6c8ebf;rotation=-6;" parent="1" vertex="1">
          <mxGeometry x="1550" y="736.8399999999999" width="206.17" height="93.16" as="geometry" />
        </mxCell>
        <mxCell id="yAcTvHBfnp9vPDVO_GiE-68" value="" style="verticalLabelPosition=bottom;verticalAlign=top;html=1;shape=mxgraph.basic.partConcEllipse;startAngle=0.4928517792689533;endAngle=0.006362805673995916;arcWidth=0.24;fillColor=#dae8fc;strokeColor=#6c8ebf;rotation=10;" parent="1" vertex="1">
          <mxGeometry x="1640" y="830" width="190" height="200" as="geometry" />
        </mxCell>
        <mxCell id="yAcTvHBfnp9vPDVO_GiE-69" value="" style="html=1;shadow=0;dashed=0;align=center;verticalAlign=middle;shape=mxgraph.arrows2.uTurnArrow;dy=6.5;arrowHead=30;dx2=22.25;fillColor=#dae8fc;strokeColor=#6c8ebf;" parent="1" vertex="1">
          <mxGeometry x="1770" y="855" width="40" height="50" as="geometry" />
        </mxCell>
        <mxCell id="yAcTvHBfnp9vPDVO_GiE-70" value="" style="verticalLabelPosition=bottom;verticalAlign=top;html=1;shape=mxgraph.basic.diag_stripe;dx=10;fillColor=#dae8fc;strokeColor=#6c8ebf;rotation=-150;direction=south;" parent="1" vertex="1">
          <mxGeometry x="1500.0049999999999" y="823.8249999999999" width="93.16" height="206.17" as="geometry" />
        </mxCell>
        <mxCell id="yAcTvHBfnp9vPDVO_GiE-71" value="" style="verticalLabelPosition=bottom;verticalAlign=top;html=1;shape=mxgraph.basic.partConcEllipse;startAngle=0.4928517792689533;endAngle=0.006362805673995916;arcWidth=0.24;fillColor=#dae8fc;strokeColor=#6c8ebf;rotation=-192;" parent="1" vertex="1">
          <mxGeometry x="1670" y="740.83" width="190" height="200" as="geometry" />
        </mxCell>
        <mxCell id="yAcTvHBfnp9vPDVO_GiE-72" value="" style="rounded=0;whiteSpace=wrap;html=1;" parent="1" vertex="1">
          <mxGeometry x="-60" y="1275" width="580" height="550" as="geometry" />
        </mxCell>
        <mxCell id="yAcTvHBfnp9vPDVO_GiE-73" value="" style="line;strokeWidth=2;html=1;" parent="1" vertex="1">
          <mxGeometry x="60" y="1775" width="340" height="10" as="geometry" />
        </mxCell>
        <mxCell id="yAcTvHBfnp9vPDVO_GiE-74" value="" style="verticalLabelPosition=bottom;verticalAlign=top;html=1;shape=mxgraph.basic.smiley;fillColor=#d5e8d4;strokeColor=#82b366;" parent="1" vertex="1">
          <mxGeometry x="60" y="1722.5" width="50" height="50" as="geometry" />
        </mxCell>
        <mxCell id="yAcTvHBfnp9vPDVO_GiE-75" value="" style="verticalLabelPosition=bottom;verticalAlign=top;html=1;shape=mxgraph.basic.star;fillColor=#ffe6cc;strokeColor=#d79b00;" parent="1" vertex="1">
          <mxGeometry x="325" y="1460" width="30" height="30" as="geometry" />
        </mxCell>
        <mxCell id="yAcTvHBfnp9vPDVO_GiE-76" value="" style="verticalLabelPosition=bottom;verticalAlign=top;html=1;shape=mxgraph.basic.banner;fillColor=#e1d5e7;strokeColor=#9673a6;" parent="1" vertex="1">
          <mxGeometry x="295" y="1550" width="80" height="35.83" as="geometry" />
        </mxCell>
        <mxCell id="yAcTvHBfnp9vPDVO_GiE-77" value="" style="verticalLabelPosition=bottom;verticalAlign=top;html=1;shape=mxgraph.basic.star;fillColor=#ffe6cc;strokeColor=#d79b00;" parent="1" vertex="1">
          <mxGeometry x="165.51" y="1722.5" width="30" height="30" as="geometry" />
        </mxCell>
        <mxCell id="yAcTvHBfnp9vPDVO_GiE-78" value="" style="verticalLabelPosition=bottom;verticalAlign=top;html=1;shape=mxgraph.basic.star;fillColor=#ffe6cc;strokeColor=#d79b00;" parent="1" vertex="1">
          <mxGeometry x="140" y="1470" width="35" height="30" as="geometry" />
        </mxCell>
        <mxCell id="yAcTvHBfnp9vPDVO_GiE-79" value="" style="html=1;shadow=0;dashed=0;align=center;verticalAlign=middle;shape=mxgraph.arrows2.uTurnArrow;dy=2.38;arrowHead=28.75;dx2=14.25;fillColor=#dae8fc;strokeColor=#6c8ebf;" parent="1" vertex="1">
          <mxGeometry x="395" y="1639.22" width="50" height="57.5" as="geometry" />
        </mxCell>
        <mxCell id="yAcTvHBfnp9vPDVO_GiE-80" value="" style="line;strokeWidth=2;html=1;" parent="1" vertex="1">
          <mxGeometry x="90" y="1420" width="350" height="10" as="geometry" />
        </mxCell>
        <mxCell id="yAcTvHBfnp9vPDVO_GiE-81" value="" style="verticalLabelPosition=bottom;verticalAlign=top;html=1;shape=mxgraph.basic.partConcEllipse;startAngle=0.4928517792689533;endAngle=0.006362805673995916;arcWidth=0.07;fillColor=#dae8fc;strokeColor=#6c8ebf;rotation=180;" parent="1" vertex="1">
          <mxGeometry x="280" y="1455" width="270" height="330" as="geometry" />
        </mxCell>
        <mxCell id="yAcTvHBfnp9vPDVO_GiE-82" value="" style="line;strokeWidth=2;html=1;rotation=35;" parent="1" vertex="1">
          <mxGeometry x="195.51" y="1597.61" width="205" height="10" as="geometry" />
        </mxCell>
        <mxCell id="yAcTvHBfnp9vPDVO_GiE-83" value="" style="verticalLabelPosition=bottom;verticalAlign=top;html=1;shape=mxgraph.basic.diag_stripe;dx=10;fillColor=#dae8fc;strokeColor=#6c8ebf;rotation=25;" parent="1" vertex="1">
          <mxGeometry x="155.45" y="1462.4" width="261.94" height="107.19" as="geometry" />
        </mxCell>
        <mxCell id="yAcTvHBfnp9vPDVO_GiE-86" value="" style="html=1;shadow=0;dashed=0;align=center;verticalAlign=middle;shape=mxgraph.arrows2.uTurnArrow;dy=2;arrowHead=30;dx2=13.5;fillColor=#dae8fc;strokeColor=#6c8ebf;" parent="1" vertex="1">
          <mxGeometry x="390" y="1470" width="40" height="50" as="geometry" />
        </mxCell>
        <mxCell id="yAcTvHBfnp9vPDVO_GiE-92" value="" style="verticalLabelPosition=bottom;verticalAlign=top;html=1;shape=mxgraph.basic.partConcEllipse;startAngle=0.4928517792689533;endAngle=0.006362805673995916;arcWidth=0.07;fillColor=#dae8fc;strokeColor=#6c8ebf;rotation=15;" parent="1" vertex="1">
          <mxGeometry x="62.16" y="1420" width="190.68" height="200" as="geometry" />
        </mxCell>
        <mxCell id="yAcTvHBfnp9vPDVO_GiE-93" value="" style="verticalLabelPosition=bottom;verticalAlign=top;html=1;shape=mxgraph.basic.diag_stripe;dx=10;fillColor=#dae8fc;strokeColor=#6c8ebf;rotation=25;" parent="1" vertex="1">
          <mxGeometry x="130.05" y="1659.58" width="280" height="16.78" as="geometry" />
        </mxCell>
        <mxCell id="yAcTvHBfnp9vPDVO_GiE-94" value="" style="verticalLabelPosition=bottom;verticalAlign=top;html=1;shape=mxgraph.basic.partConcEllipse;startAngle=0.4928517792689533;endAngle=0.006362805673995916;arcWidth=0.07;fillColor=#dae8fc;strokeColor=#6c8ebf;rotation=-195;" parent="1" vertex="1">
          <mxGeometry x="285" y="1530" width="190.68" height="200" as="geometry" />
        </mxCell>
        <mxCell id="yAcTvHBfnp9vPDVO_GiE-95" value="" style="html=1;shadow=0;dashed=0;align=center;verticalAlign=middle;shape=mxgraph.arrows2.uTurnArrow;dy=2.38;arrowHead=28.75;dx2=14.25;fillColor=#dae8fc;strokeColor=#6c8ebf;" parent="1" vertex="1">
          <mxGeometry x="110" y="1549.16" width="50" height="57.5" as="geometry" />
        </mxCell>
      </root>
    </mxGraphModel>
  </diagram>
</mxfile>
